<?xml version="1.0" encoding="UTF-8"?>
<svg width="202px" height="140px" viewBox="0 0 202 140" version="1.1" xmlns="http://www.w3.org/2000/svg" xmlns:xlink="http://www.w3.org/1999/xlink">
    <title>2</title>
    <g id="插画" stroke="none" stroke-width="1" fill="none" fill-rule="evenodd">
        <g id="Apple-TV" transform="translate(-1462.000000, -114.000000)">
            <g id="2" transform="translate(1462.000000, 114.000000)">
                <g id="编组-8" transform="translate(9.536585, 15.853659)" fill-rule="nonzero">
                    <path d="M94.1707317,6.70731707 C96.3798707,6.70731707 98.1707317,8.49817807 98.1707317,10.7073171 L98.1707317,17.3414634 C98.1707317,19.5506024 96.3798707,21.3414634 94.1707317,21.3414634 L4.6097561,21.3414634 C2.4006171,21.3414634 0.609756098,19.5506024 0.609756098,17.3414634 L0.609756098,10.7073171 C0.609756098,8.49817807 2.4006171,6.70731707 4.6097561,6.70731707 L94.1707317,6.70731707 Z M94.1707317,7.70731707 L4.6097561,7.70731707 C3.01207521,7.70731707 1.70609522,8.95623704 1.61484879,10.5310443 L1.6097561,10.7073171 L1.6097561,17.3414634 C1.6097561,18.9391443 2.85867606,20.2451243 4.43348331,20.3363707 L4.6097561,20.3414634 L94.1707317,20.3414634 C95.7684126,20.3414634 97.0743926,19.0925435 97.165639,17.5177362 L97.1707317,17.3414634 L97.1707317,10.7073171 C97.1707317,9.10963619 95.9218117,7.80365619 94.3470045,7.71240977 L94.1707317,7.70731707 Z" id="矩形" fill="#C3C3C4" transform="translate(49.390244, 14.024390) scale(1, -1) translate(-49.390244, -14.024390) "></path>
                    <polygon id="直线备份" fill="#0C24FF" transform="translate(28.118030, 13.414634) scale(1, -1) translate(-28.118030, -13.414634) " points="46.9799618 12.9146341 46.9799618 13.9146341 9.25609756 13.9146341 9.25609756 12.9146341"></polygon>
                    <polygon id="直线备份-2" fill="#0C24FF" points="66.9634146 12.9146341 66.9634146 13.9146341 51.9390244 13.9146341 51.9390244 12.9146341"></polygon>
                    <polygon id="直线" fill="#C3C3C4" points="27.9390244 0.109756098 27.9390244 1.1097561 0.109756098 1.1097561 0.109756098 0.109756098"></polygon>
                </g>
                <path d="M82.7073171,12.195122 C92.1365689,12.195122 99.7804878,19.8390409 99.7804878,29.2682927 C99.7804878,38.6975445 92.1365689,46.3414634 82.7073171,46.3414634 C73.2780652,46.3414634 65.6341463,38.6975445 65.6341463,29.2682927 C65.6341463,19.8390409 73.2780652,12.195122 82.7073171,12.195122 Z M82.7073171,13.195122 C73.83035,13.195122 66.6341463,20.3913256 66.6341463,29.2682927 C66.6341463,38.1452598 73.83035,45.3414634 82.7073171,45.3414634 C91.5842841,45.3414634 98.7804878,38.1452598 98.7804878,29.2682927 C98.7804878,20.3913256 91.5842841,13.195122 82.7073171,13.195122 Z" id="椭圆形" fill="#0C24FF" fill-rule="nonzero"></path>
                <g id="编组-7" transform="translate(64.414634, 54.862277)" fill-rule="nonzero">
                    <path d="M10.6341463,0 C12.8432853,0 14.6341463,1.790861 14.6341463,4 L14.6341463,10.6341463 C14.6341463,12.8432853 12.8432853,14.6341463 10.6341463,14.6341463 L4,14.6341463 C1.790861,14.6341463 0,12.8432853 0,10.6341463 L0,4 C0,1.790861 1.790861,0 4,0 L10.6341463,0 Z M10.6341463,1 L4,1 C2.40231912,1 1.09633912,2.24891996 1.00509269,3.82372721 L1,4 L1,10.6341463 C1,12.2318272 2.24891996,13.5378072 3.82372721,13.6290536 L4,13.6341463 L10.6341463,13.6341463 C12.2318272,13.6341463 13.5378072,12.3852264 13.6290536,10.8104191 L13.6341463,10.6341463 L13.6341463,4 C13.6341463,2.40231912 12.3852264,1.09633912 10.8104191,1.00509269 L10.6341463,1 Z" id="矩形备份" fill="#C3C3C4" transform="translate(7.317073, 7.317073) scale(1, -1) translate(-7.317073, -7.317073) "></path>
                    <polygon id="直线备份-3" fill="#0C24FF" points="11.320885 3.96598926 12.0724952 4.62559685 6.97334344 10.4359821 3.16115347 7.27143525 3.79987418 6.50199659 6.863 9.044"></polygon>
                    <polygon id="直线备份-5" fill="#C3C3C4" points="71.8414634 6.81707317 71.8414634 7.81707317 19.6219512 7.81707317 19.6219512 6.81707317"></polygon>
                    <polygon id="直线备份-6" fill="#C3C3C4" points="66.2759603 11.695122 66.2759603 12.695122 19.2773065 12.695122 19.2773065 11.695122"></polygon>
                    <polygon id="直线备份-4" fill="#C3C3C4" points="58.771474 1.93902439 58.771474 2.93902439 19.2773065 2.93902439 19.2773065 1.93902439"></polygon>
                </g>
                <g id="编组-6" transform="translate(147.695017, 86.071940) rotate(-45.000000) translate(-147.695017, -86.071940) translate(120.695017, 37.571940)" fill="#000000" fill-rule="nonzero">
                    <path d="M26.8292683,0 C41.646664,0 53.6585366,12.0118726 53.6585366,26.8292683 C53.6585366,41.646664 41.646664,53.6585366 26.8292683,53.6585366 C12.0118726,53.6585366 0,41.646664 0,26.8292683 C0,12.0118726 12.0118726,0 26.8292683,0 Z M26.8292683,1 C12.5641573,1 1,12.5641573 1,26.8292683 C1,41.0943793 12.5641573,52.6585366 26.8292683,52.6585366 C41.0943793,52.6585366 52.6585366,41.0943793 52.6585366,26.8292683 C52.6585366,12.5641573 41.0943793,1 26.8292683,1 Z" id="椭圆形"></path>
                    <polygon id="直线备份-7" points="27.3292683 53.1585366 27.3292683 61.4756098 26.3292683 61.4756098 26.3292683 53.1585366"></polygon>
                    <path d="M31.7073171,60.9756098 L31.7073171,96.3414634 L21.9512195,96.3414634 L21.9512195,60.9756098 L31.7073171,60.9756098 Z M30.707,61.975 L22.951,61.975 L22.951,95.341 L30.707,95.341 L30.707,61.975 Z" id="矩形"></path>
                </g>
                <g id="编组-6备份" transform="translate(25.100973, 65.940118) scale(-1, -1) rotate(-45.000000) translate(-25.100973, -65.940118) translate(12.600973, 43.940118)" fill="#000000" fill-rule="nonzero">
                    <path d="M12.195122,0 C18.9303018,0 24.3902439,5.45994208 24.3902439,12.195122 C24.3902439,18.9303018 18.9303018,24.3902439 12.195122,24.3902439 C5.45994208,24.3902439 0,18.9303018 0,12.195122 C0,5.45994208 5.45994208,0 12.195122,0 Z M12.195122,1 C6.01222683,1 1,6.01222683 1,12.195122 C1,18.3780171 6.01222683,23.3902439 12.195122,23.3902439 C18.3780171,23.3902439 23.3902439,18.3780171 23.3902439,12.195122 C23.3902439,6.01222683 18.3780171,1 12.195122,1 Z" id="椭圆形"></path>
                    <polygon id="直线备份-7" points="12.695122 23.8902439 12.695122 28.2161863 11.695122 28.2161863 11.695122 23.8902439"></polygon>
                    <path d="M14.4124169,27.7161863 L14.4124169,43.7915743 L9.97782705,43.7915743 L9.97782705,27.7161863 L14.4124169,27.7161863 Z M13.412,28.716 L10.977,28.716 L10.977,42.791 L13.412,42.791 L13.412,28.716 Z" id="矩形"></path>
                </g>
                <g id="编组-9" transform="translate(31.487805, 87.804878)">
                    <path d="M75.2682927,0 C77.4774317,0 79.2682927,1.790861 79.2682927,4 L79.2682927,24.0487805 C79.2682927,26.2579195 77.4774317,28.0487805 75.2682927,28.0487805 L4,28.0487805 C1.790861,28.0487805 0,26.2579195 0,24.0487805 L0,4 C0,1.790861 1.790861,0 4,0 L75.2682927,0 Z M75.2682927,1 L4,1 C2.40231912,1 1.09633912,2.24891996 1.00509269,3.82372721 L1,4 L1,24.0487805 C1,25.6464614 2.24891996,26.9524414 3.82372721,27.0436878 L4,27.0487805 L75.2682927,27.0487805 C76.8659736,27.0487805 78.1719536,25.7998605 78.2632,24.2250533 L78.2682927,24.0487805 L78.2682927,4 C78.2682927,2.40231912 77.0193727,1.09633912 75.4445655,1.00509269 L75.2682927,1 Z" id="矩形备份-2" fill="#0C24FF" fill-rule="nonzero" transform="translate(39.634146, 14.024390) scale(1, -1) translate(-39.634146, -14.024390) "></path>
                    <path d="M0,0 L79.2682927,0 L79.2682927,17.9512195 C79.2682927,20.1603585 77.4774317,21.9512195 75.2682927,21.9512195 L4,21.9512195 C1.790861,21.9512195 2.705415e-16,20.1603585 0,17.9512195 L0,0 L0,0 Z" id="矩形备份-2" fill="#0C24FF" transform="translate(39.634146, 10.975610) scale(1, -1) translate(-39.634146, -10.975610) "></path>
                    <path d="M31.5648015,16.168 C32.8488015,16.168 33.8688015,15.736 34.6128015,14.884 C35.3088015,14.068 35.6688015,13.024 35.6688015,11.728 C35.6688015,10.42 35.3088015,9.364 34.6128015,8.548 C33.8688015,7.684 32.8488015,7.264 31.5768015,7.264 C30.2808015,7.264 29.2728015,7.696 28.5288015,8.56 C27.8208015,9.376 27.4728015,10.432 27.4728015,11.728 C27.4728015,13.012 27.8208015,14.068 28.5288015,14.884 C29.2728015,15.736 30.2808015,16.168 31.5648015,16.168 Z M31.5648015,15.292 C30.5808015,15.292 29.8008015,14.956 29.2488015,14.284 C28.7208015,13.636 28.4568015,12.784 28.4568015,11.728 C28.4568015,10.66 28.7208015,9.808 29.2488015,9.16 C29.8128015,8.476 30.5928015,8.14 31.5768015,8.14 C32.5608015,8.14 33.3288015,8.464 33.8808015,9.124 C34.4088015,9.772 34.6848015,10.636 34.6848015,11.728 C34.6848015,12.808 34.4088015,13.66 33.8808015,14.308 C33.3288015,14.956 32.5488015,15.292 31.5648015,15.292 Z M42.1636585,16 L42.1636585,13 L43.4956585,11.74 L47.2756585,16 L48.5956585,16 L44.1796585,11.104 L48.0556585,7.432 L46.7716585,7.432 L42.1636585,11.884 L42.1636585,7.432 L41.1796585,7.432 L41.1796585,16 L42.1636585,16 Z" id="OK" fill="#FFFFFF" fill-rule="nonzero"></path>
                </g>
                <polygon id="直线备份-8" fill="#0C24FF" fill-rule="nonzero" transform="translate(52.759356, 121.121007) rotate(-118.000000) translate(-52.759356, -121.121007) " points="55.6983122 118.806105 56.442304 119.474294 52.8843252 123.43591 49.0764081 120.27491 49.7151288 119.505471 52.782 122.051"></polygon>
                <path d="M97.0395135,17.0328163 C98.1890318,15.7657762 99.3387658,14.5746866 100.488679,13.4595369 L99.7925071,12.7416621 C98.6270347,13.8719004 97.462509,15.0783137 96.2988941,16.3608915 L97.0395135,17.0328163 Z M104.184988,10.136987 C105.504256,9.04458932 106.823595,8.05216869 108.142951,7.15966118 L107.58264,6.33137846 C106.236047,7.24231187 104.890924,8.25412762 103.547216,9.36676178 L104.184988,10.136987 Z M112.398477,4.62731076 C113.909251,3.8512223 115.419938,3.2060622 116.930592,2.69163 L116.608234,1.74501202 C115.050659,2.27542257 113.495076,2.9397561 111.941539,3.73781215 L112.398477,4.62731076 Z M121.693732,1.50255077 C123.325392,1.24343517 124.957737,1.13641616 126.591155,1.18142227 L126.618698,0.181801651 C124.923413,0.135090916 123.229348,0.246156414 121.536892,0.514926677 L121.693732,1.50255077 Z M131.528811,1.77967097 C133.096136,2.11601475 134.665387,2.59195586 136.236723,3.20771475 L136.601579,2.2766507 C134.98053,1.64141071 133.359495,1.149764 131.738632,0.801931026 L131.528811,1.77967097 Z M140.635319,5.29369612 C142.02549,6.067232 143.41732,6.94980177 144.810764,7.94150559 L145.390602,7.12677418 C143.967587,6.11402452 142.544584,5.21168783 141.121548,4.41986429 L140.635319,5.29369612 Z M148.733523,11.0180723 C149.947767,12.0583815 151.163092,13.1811911 152.379454,14.3865216 L153.083332,13.676201 C151.850097,12.4541505 150.617049,11.3149667 149.384144,10.2586701 L148.733523,11.0180723 Z M155.80704,18.0145578 C156.927475,19.3090652 157.918931,20.6202062 158.781988,21.9455248 L159.619969,21.3998257 C158.731728,20.0358341 157.712869,18.6884547 156.563154,17.3601182 L155.80704,18.0145578 Z M161.122518,26.2699529 C161.792841,27.8144921 162.295105,29.3712015 162.631114,30.9355803 L163.608815,30.7255824 C163.25883,29.0961318 162.736251,27.4764558 162.039851,25.871834 L161.122518,26.2699529 Z M163.141837,35.8023448 C163.135807,37.4270373 162.954492,39.0512683 162.601409,40.6683708 L163.578392,40.8816883 C163.946382,39.1963123 164.135536,37.5018571 164.14183,35.806056 L163.141837,35.8023448 Z M161.074857,45.3876906 C160.444539,46.8542682 159.673657,48.3047038 158.76746,49.7321021 L159.611696,50.2680734 C160.545975,48.7964415 161.341871,47.2989426 161.993596,45.7825538 L161.074857,45.3876906 Z M155.831295,53.7217195 C154.798955,54.9496103 153.665881,56.1503008 152.437981,57.3183203 L153.127201,58.0428733 C154.381589,56.8496566 155.540126,55.6219831 156.59672,54.3652448 L155.831295,53.7217195 Z M148.722263,60.5261033 C147.449225,61.5268976 146.105559,62.4939939 144.697042,63.423372 L145.247784,64.2580476 C146.67915,63.313593 148.045269,62.3303361 149.340295,61.3122566 L148.722263,60.5261033 Z M140.423015,66.0163008 C138.99764,66.8110739 137.523634,67.5680565 136.006318,68.2843862 L136.433236,69.1886765 C137.970792,68.4627914 139.464838,67.6955174 140.910015,66.8897031 L140.423015,66.0163008 Z M131.404687,70.278888 C129.877602,70.8845197 128.318286,71.4494196 126.731497,71.9715958 L127.044084,72.921485 C128.649707,72.3931109 130.227722,71.8214366 131.773346,71.2084526 L131.404687,70.278888 Z M121.916921,73.4017387 C120.321533,73.8259154 118.706791,74.207039 117.076861,74.5437671 L117.279179,75.5230869 C118.927434,75.1825732 120.560394,74.7971497 122.173871,74.3681634 L121.916921,73.4017387 Z M112.216185,75.4089017 C110.578486,75.6540913 108.931904,75.8542846 107.280032,76.0086124 L107.373053,77.0042765 C109.043366,76.8482259 110.708303,76.6458009 112.364251,76.3978792 L112.216185,75.4089017 Z M102.337459,76.3321883 C100.679074,76.3943821 99.0206979,76.4098239 97.3654027,76.3779833 L97.3461707,77.3777984 C99.0204319,77.4100037 100.697718,77.3943859 102.374936,77.3314859 L102.337459,76.3321883 Z M92.4006365,76.1392211 C90.7446711,76.0113057 89.0964484,75.8351274 87.4585673,75.6103923 L87.3226301,76.6011098 C88.980165,76.8285415 90.648036,77.00682 92.3236207,77.1362509 L92.4006365,76.1392211 Z M82.5746735,74.7894452 C81.9283985,74.6604678 81.2843662,74.5236981 80.6427171,74.3791261 C79.6418684,74.1535063 78.6558724,73.9436494 77.6763261,73.7476631 L77.4801359,74.7282289 C78.1278577,74.8578242 78.7784715,74.9935445 79.4344827,75.1359548 L80.4228606,75.3546583 C81.0725861,75.50105 81.7246496,75.6395253 82.3789625,75.7701068 L82.5746735,74.7894452 Z M72.7303511,72.8674803 C71.0462715,72.6059185 69.3867648,72.3880713 67.7524129,72.2135607 L67.6462398,73.2079084 C69.2646778,73.3807197 70.908416,73.596497 72.5768768,73.8556329 L72.7303511,72.8674803 Z M62.7353884,71.8092986 C61.0279774,71.7177926 59.3516955,71.6764366 57.7074173,71.6846408 L57.7124068,72.6846284 C59.3370415,72.6765222 60.9938167,72.7173969 62.6818717,72.8078655 L62.7353884,71.8092986 Z M52.6584694,71.8720874 C50.9477605,71.9927374 49.2773674,72.1709676 47.6486379,72.4057922 L47.7913389,73.3955581 C49.3958859,73.16422 51.0421498,72.9885643 52.728821,72.8696097 L52.6584694,71.8720874 Z M42.7029688,73.3212076 C41.0278232,73.703473 39.4057913,74.1510332 37.8389594,74.6621375 L38.1490793,75.612835 C39.6868837,75.1111995 41.2796721,74.6717083 42.9254479,74.2961451 L42.7029688,73.3212076 Z M33.0992161,76.4755986 C31.5268718,77.1727772 30.025197,77.9414527 28.5973251,78.7783788 L29.1029985,79.6411037 C30.4982306,78.8233091 31.9664015,78.0717835 33.5045577,77.3897638 L33.0992161,76.4755986 Z M24.3763258,81.6145595 C23.0145774,82.6605021 21.7453304,83.7782843 20.5727691,84.9620024 L21.283216,85.6657532 C22.4239354,84.5141799 23.6593231,83.4262165 24.9854671,82.4076212 L24.3763258,81.6145595 Z M17.2868501,88.7896527 C16.2701218,90.1646573 15.3683226,91.6005255 14.5857536,93.0876456 L15.4707027,93.5533334 C16.2295835,92.111228 17.1043313,90.7184319 18.0909087,89.3842028 L17.2868501,88.7896527 Z M12.5681508,97.7877198 C12.023832,99.3981883 11.610448,101.044622 11.3304753,102.714193 L12.3167049,102.879575 C12.5878667,101.262546 12.9882526,99.6678818 13.5155029,98.1079133 L12.5681508,97.7877198 Z M10.8930911,107.83365 C10.8854971,109.523665 11.0119373,111.216328 11.2717313,112.898333 L12.2600124,112.745688 C12.0082391,111.115612 11.8857236,109.47549 11.893081,107.838143 L10.8930911,107.83365 Z M13.6001037,117.553008 C14.5762847,119.044404 15.6264864,120.378181 16.7509047,121.553951 L17.4736174,120.862802 C16.3925508,119.732364 15.3802151,118.446677 14.4368066,117.005351 L13.6001037,117.553008 Z M20.7012081,124.840443 C22.1527703,125.776663 23.6976374,126.510035 25.3348344,127.040058 L25.6428345,126.088672 C24.0882069,125.585379 22.621995,124.889347 21.2432239,124.000075 L20.7012081,124.840443 Z M30.3610389,128.008195 C31.9865833,128.129041 33.6845412,128.086517 35.4546946,127.881041 L35.3393911,126.887711 C33.6307372,127.086048 31.9960716,127.126987 30.4351759,127.010947 L30.3610389,128.008195 Z M40.5206759,126.901278 C42.0739317,126.489251 43.6755612,125.968841 45.3256506,125.340157 L44.9696167,124.405684 C43.3514131,125.022219 41.7829377,125.531857 40.2642767,125.934707 L40.5206759,126.901278 Z" id="路径" fill="#0C24FF" fill-rule="nonzero"></path>
            </g>
        </g>
    </g>
</svg>